<svg width="21" height="22" viewBox="0 0 21 22" fill="none" xmlns="http://www.w3.org/2000/svg">
<circle cx="10.1569" cy="11.0587" r="10.1569" fill="white"/>
<g clip-path="url(#clip0_1432_17962)">
<path fill-rule="evenodd" clip-rule="evenodd" d="M14.396 13.3673C14.396 15.6981 12.4995 17.5875 10.1599 17.5875C7.82039 17.5875 5.92383 15.6981 5.92383 13.3673C5.92383 11.1005 9.9308 4.87484 10.1506 4.53511C10.1556 4.52736 10.1643 4.52736 10.1693 4.53511C10.3891 4.87484 14.396 11.1005 14.396 13.3673ZM9.45379 16.2346C7.30419 15.7642 7.67203 13.383 7.67203 13.383C7.67203 13.383 8.25901 14.8205 9.68347 15.2861C11.1079 15.7517 12.8293 15.0688 12.8293 15.0688C12.8293 15.0688 11.6034 16.7049 9.45379 16.2346Z" fill="#5090D6"/>
</g>
<defs>
<clipPath id="clip0_1432_17962">
<rect width="13.0588" height="13.0588" fill="white" transform="translate(3.62793 4.5293)"/>
</clipPath>
</defs>
</svg>
